<?xml version="1.0" standalone="no"?>
<!DOCTYPE svg PUBLIC "-//W3C//DTD SVG 20010904//EN"
 "http://www.w3.org/TR/2001/REC-SVG-20010904/DTD/svg10.dtd">
<svg version="1.0" xmlns="http://www.w3.org/2000/svg"
 width="1920.000000pt" height="1229.000000pt" viewBox="0 0 1920.000000 1229.000000"
 preserveAspectRatio="xMidYMid meet">

<g transform="translate(0.000000,1229.000000) scale(0.100000,-0.100000)"
fill="#000000" stroke="none">
<path d="M5573 9511 c-44 -11 -63 -29 -63 -57 0 -35 52 -70 191 -129 286 -120
469 -236 653 -413 129 -124 194 -224 246 -379 70 -212 80 -468 36 -983 -14
-168 -30 -357 -34 -420 l-7 -114 -145 -88 c-79 -48 -147 -85 -151 -80 -6 6
-25 126 -44 272 -3 25 -10 160 -15 300 -12 333 -24 373 -122 415 -76 31 -187
10 -313 -60 -136 -75 -186 -97 -210 -91 -12 3 -47 35 -76 72 -65 79 -148 137
-238 164 -189 60 -510 21 -710 -86 -36 -18 -66 -32 -68 -30 -8 8 92 130 190
235 111 117 165 194 200 289 20 53 22 76 23 337 1 276 10 383 38 450 8 18 19
36 26 40 19 12 173 8 238 -5 215 -45 374 -245 461 -581 40 -151 61 -313 61
-459 0 -116 1 -119 26 -139 15 -12 36 -21 48 -21 41 0 122 47 176 103 128 131
200 323 200 539 0 176 -49 288 -190 429 -135 136 -282 219 -495 281 -67 19
-103 23 -225 23 -164 -1 -222 -16 -296 -79 -21 -18 -55 -41 -74 -51 -108 -54
-131 -107 -190 -430 -65 -360 -117 -504 -217 -603 -78 -77 -140 -108 -388
-192 -326 -111 -433 -169 -599 -330 -160 -155 -246 -303 -292 -505 -29 -123
-26 -466 5 -730 54 -451 24 -645 -120 -799 l-56 -60 0 69 c1 111 -43 193 -128
238 -59 32 -175 31 -231 -1 -80 -46 -118 -143 -94 -241 24 -102 93 -176 190
-202 l45 -12 -30 -10 c-50 -16 -223 -12 -295 7 -146 39 -263 127 -358 269 -27
40 -84 135 -126 212 -187 335 -314 473 -541 585 -287 141 -568 146 -830 12
-190 -96 -393 -295 -529 -519 -39 -63 -43 -95 -14 -101 11 -2 40 33 94 115 56
85 110 151 193 234 218 218 409 309 651 309 258 0 530 -127 703 -328 75 -86
126 -165 222 -338 93 -167 150 -255 211 -323 196 -219 594 -274 780 -109 22
19 60 49 87 67 125 85 212 214 243 363 22 102 20 323 -6 548 -54 483 -45 683
41 892 84 206 283 407 515 522 49 24 177 74 285 109 239 80 318 118 404 198
119 112 173 257 250 675 35 194 52 258 80 297 18 26 18 21 4 -79 -6 -43 -11
-200 -12 -349 -2 -248 -4 -274 -23 -321 -33 -80 -85 -151 -205 -280 -120 -127
-185 -219 -219 -305 -12 -30 -35 -75 -52 -101 -103 -162 -66 -408 72 -478 50
-26 90 -25 123 0 54 43 46 97 -38 240 -50 86 -80 186 -70 237 5 27 19 43 68
80 83 62 164 98 283 129 122 31 299 42 399 25 119 -21 169 -50 272 -159 89
-93 94 -97 136 -97 28 0 63 10 102 31 33 17 101 52 152 78 107 56 195 71 250
43 55 -29 64 -72 74 -340 8 -247 20 -384 45 -522 7 -44 14 -86 14 -93 0 -17
-124 -75 -221 -102 -57 -17 -113 -23 -240 -27 -504 -17 -969 133 -969 313 0
26 1 27 53 20 93 -12 208 -47 415 -128 260 -100 338 -122 417 -116 161 13 297
163 299 327 1 147 -103 252 -289 291 -74 16 -248 16 -335 1 -246 -44 -487
-162 -569 -277 -23 -32 -28 -34 -80 -34 -31 0 -82 -6 -113 -14 -56 -13 -58
-13 -80 11 -13 14 -43 35 -68 47 -87 44 -135 51 -320 50 -200 -1 -296 -20
-382 -75 -188 -121 -220 -428 -52 -509 112 -55 254 0 516 197 86 65 188 135
227 156 l71 38 0 -34 c0 -43 -33 -106 -123 -232 -269 -380 -358 -545 -462
-860 -93 -281 -135 -508 -135 -732 0 -205 32 -348 101 -442 59 -82 140 -104
198 -55 50 41 54 76 56 439 2 370 9 430 85 741 67 272 154 498 245 640 l39 59
8 -54 c19 -126 118 -217 248 -228 39 -4 85 1 151 17 66 16 126 23 200 23 93 1
112 -2 155 -24 39 -19 49 -29 49 -49 0 -48 -73 -81 -370 -166 -230 -66 -269
-79 -317 -110 -31 -20 -38 -30 -38 -57 0 -43 22 -72 73 -100 37 -19 56 -22
162 -21 130 1 114 -3 399 98 192 69 348 90 394 54 6 -6 12 -24 12 -40 0 -97
-163 -180 -485 -248 -146 -30 -217 -56 -264 -96 -30 -27 -41 -43 -41 -65 0
-69 100 -80 325 -36 303 60 569 84 638 58 22 -9 27 -17 27 -45 0 -18 -6 -39
-14 -45 -24 -20 -121 -48 -311 -91 -205 -45 -295 -74 -395 -126 -176 -92 -259
-236 -181 -315 37 -36 63 -37 196 -5 134 32 334 71 475 92 121 19 487 26 524
11 18 -7 18 -8 1 -27 -28 -31 -129 -57 -360 -96 -372 -62 -437 -84 -520 -176
-109 -121 -159 -335 -94 -405 32 -33 82 -30 181 11 272 113 620 127 956 40
104 -27 240 -88 256 -116 39 -65 -197 -386 -384 -523 -88 -64 -221 -129 -327
-161 -129 -38 -323 -45 -419 -16 -234 72 -397 376 -499 925 -14 76 -38 240
-55 365 -35 267 -38 280 -56 310 -33 52 -67 13 -90 -104 -10 -54 -15 -140 -15
-269 0 -572 159 -1193 398 -1554 82 -124 208 -246 308 -298 113 -58 173 -74
311 -80 585 -28 1201 390 1522 1033 155 310 225 615 225 979 0 196 -14 306
-58 460 -53 181 -112 291 -285 535 -211 296 -225 334 -224 600 1 160 42 697
60 778 9 43 229 133 371 153 310 43 622 -157 839 -538 83 -146 139 -297 209
-561 95 -363 157 -483 282 -549 32 -17 83 -36 113 -42 67 -14 10299 -16 10313
-2 5 5 7 17 5 27 -3 18 -144 19 -5113 21 -2811 0 -5133 3 -5161 6 -119 12
-213 84 -272 209 -33 69 -82 226 -126 404 -57 227 -159 465 -268 629 -108 162
-293 329 -434 391 -217 96 -432 89 -671 -21 -40 -18 -74 -31 -74 -27 -2 9 -4
-24 16 271 21 313 17 756 -10 920 -26 164 -62 288 -115 396 -156 319 -489 552
-922 645 -102 23 -332 35 -385 21z m298 -65 c334 -54 631 -206 816 -417 137
-156 198 -293 243 -549 32 -175 39 -646 16 -970 -23 -322 -10 -285 -124 -352
-53 -32 -112 -68 -131 -80 l-34 -22 7 115 c4 62 16 211 27 329 26 278 36 675
20 804 -34 269 -124 461 -295 631 -193 192 -389 315 -738 465 -54 23 -95 46
-92 51 8 14 189 11 285 -5z m-383 -202 c221 -55 448 -201 553 -355 73 -108 83
-146 83 -304 0 -104 -4 -157 -17 -205 -40 -144 -131 -281 -226 -342 -77 -48
-81 -45 -81 80 -1 183 -35 389 -95 568 -58 175 -130 299 -226 390 -98 91 -190
131 -337 143 l-87 7 39 18 c88 39 236 40 394 0z m-1014 -1881 c61 -108 68
-146 29 -151 -60 -9 -122 65 -143 171 -11 57 -9 89 12 156 l11 35 17 -55 c9
-30 42 -101 74 -156z m1269 -33 c131 -41 207 -136 193 -243 -19 -137 -135
-247 -263 -247 -62 0 -166 31 -363 110 -173 69 -316 116 -385 125 -80 12 -82
17 -29 64 120 105 331 185 564 215 68 8 220 -4 283 -24z m1148 -437 c-44 -446
-49 -629 -20 -752 18 -76 94 -220 175 -331 238 -328 310 -474 360 -730 24
-129 25 -437 0 -603 -72 -494 -302 -931 -656 -1244 -293 -259 -635 -403 -959
-403 -131 0 -206 13 -288 50 -86 39 -146 83 -221 159 -291 299 -504 1002 -505
1666 0 286 12 309 42 78 99 -777 252 -1174 511 -1326 112 -65 338 -75 529 -22
253 69 506 259 665 498 104 157 128 240 82 290 -83 90 -389 173 -678 184 -219
9 -413 -22 -586 -93 -103 -42 -129 -44 -138 -7 -18 69 33 221 100 299 69 81
121 98 507 163 129 22 259 49 290 60 139 52 157 149 34 180 -24 6 -102 11
-172 11 -207 0 -479 -37 -777 -107 -168 -39 -199 -39 -204 -4 -6 41 7 68 54
115 95 95 225 148 528 215 224 50 287 72 321 112 46 55 29 139 -35 172 -54 28
-291 18 -515 -23 -311 -55 -362 -63 -389 -56 -67 17 46 68 247 113 247 54 369
101 454 176 100 88 78 214 -41 236 -94 17 -225 -10 -455 -94 -184 -67 -237
-78 -338 -74 -63 3 -88 9 -110 25 -62 47 -36 61 275 150 254 72 349 112 392
161 61 69 26 146 -83 178 -66 20 -241 19 -327 0 -36 -9 -95 -18 -132 -22 -60
-5 -73 -3 -123 22 -71 34 -107 85 -112 158 -5 68 24 120 91 162 46 28 56 30
145 30 89 0 101 -3 171 -36 162 -78 341 -239 689 -618 108 -118 212 -232 231
-253 112 -121 270 -238 321 -238 10 0 30 10 45 23 25 22 27 30 26 90 -1 78
-22 131 -89 226 -131 182 -524 538 -816 735 -48 33 -85 61 -83 63 2 2 44 -2
92 -9 54 -8 176 -13 309 -12 209 1 224 2 310 28 50 15 119 40 154 56 74 35 71
34 71 16 0 -38 97 -345 173 -546 123 -328 177 -526 224 -825 14 -90 18 -180
18 -496 0 -366 1 -388 19 -408 24 -26 36 -26 70 0 74 58 162 332 196 612 8 61
11 158 7 255 -6 176 -28 296 -98 534 -113 387 -131 452 -155 568 -34 167 -54
332 -54 456 0 117 -18 94 150 196 84 52 95 56 98 39 2 -11 -6 -113 -17 -228z
m-2553 222 c64 -15 136 -47 147 -65 3 -5 -18 -21 -47 -36 -67 -34 -111 -64
-279 -190 -168 -125 -267 -177 -353 -182 -51 -3 -65 0 -89 18 -43 34 -61 77
-61 150 0 158 108 271 291 304 106 19 311 20 391 1z m416 -132 c8 -57 43 -112
98 -149 l40 -28 -70 -17 c-39 -10 -92 -29 -119 -43 -222 -112 -395 -414 -517
-902 -77 -306 -98 -497 -94 -849 3 -294 -1 -317 -58 -323 -82 -8 -159 156
-178 378 -19 213 65 642 184 941 90 226 185 392 369 648 128 178 163 243 169
317 4 49 7 55 31 60 14 3 31 7 36 9 6 2 31 4 56 4 l46 1 7 -47z m1849 -172
c12 -235 56 -449 172 -836 110 -366 135 -497 135 -703 0 -159 -18 -304 -56
-457 -28 -111 -74 -235 -103 -278 l-18 -28 -7 32 c-3 18 -1 116 5 218 29 473
-33 885 -202 1338 -153 410 -232 671 -207 686 110 66 264 157 269 157 3 0 9
-58 12 -129z m-1574 -86 c110 -26 246 -103 456 -259 319 -238 617 -522 723
-690 49 -76 66 -196 28 -196 -50 0 -220 158 -480 445 -421 466 -630 640 -841
699 l-50 14 50 1 c28 0 79 -6 114 -14z m-2115 -935 c77 -54 106 -177 60 -265
-18 -35 -27 -42 -75 -54 -80 -21 -124 -9 -180 47 -96 96 -90 231 12 285 48 25
135 19 183 -13z"/>
</g>
</svg>
