<svg width="1097" height="853" viewBox="0 0 1097 853" fill="none" xmlns="http://www.w3.org/2000/svg">
        <path opacity="0.18" d="M450.561 507.129H506.78M450.561 507.129V563.388M450.561 507.129V450.871M450.561 507.129H394.341M506.78 507.129V563.388M506.78 507.129V450.871M506.78 507.129H563M450.561 563.388H506.78M450.561 563.388V619.646M450.561 563.388H394.341M450.561 450.871V394.612M450.561 450.871H506.78M450.561 450.871H394.341M394.341 507.129H338.121M394.341 507.129V563.388M394.341 507.129V450.871M506.78 563.388V619.646M506.78 563.388H563M506.78 450.871V394.612M506.78 450.871H563M563 507.129V563.388M563 507.129V450.871M563 507.129H619.22M506.78 619.646H450.561M506.78 619.646V675.904M506.78 619.646H563M563 563.388V619.646M563 563.388H619.22M450.561 619.646V675.904M450.561 619.646H394.341M394.341 563.388H338.121M394.341 563.388V619.646M506.78 675.904H450.561M506.78 675.904V732.163M506.78 675.904H563M563 619.646V675.904M563 619.646H619.22M450.561 675.904V732.163M450.561 675.904H394.341M394.341 619.646H338.121M394.341 619.646V675.904M506.78 0.803696H450.561M506.78 0.803696V57.0621M506.78 0.803696H563M450.561 0.803696V57.0621M450.561 0.803696H394.341M506.78 57.0621H450.561M506.78 57.0621V113.32M506.78 57.0621H563M563 0.803696V57.0621M563 0.803696H619.22M450.561 57.0621V113.32M450.561 57.0621H394.341M394.341 0.803696H338.121M394.341 0.803696V57.0621M506.78 732.163H450.561M506.78 732.163V788.421M506.78 732.163H563M563 675.904V732.163M563 675.904H619.22M450.561 732.163V788.421M450.561 732.163H394.341M394.341 675.904H338.121M394.341 675.904V732.163M506.78 113.32H450.561M506.78 113.32V169.579M506.78 113.32H563M563 57.0621V113.32M563 57.0621H619.22M450.561 113.32V169.579M450.561 113.32H394.341M394.341 57.0621H338.121M394.341 57.0621V113.32M506.78 788.421H450.561M506.78 788.421V844.68M506.78 788.421H563M563 732.163V788.421M563 732.163H619.22M450.561 788.421V844.68M450.561 788.421H394.341M394.341 732.163H338.121M394.341 732.163V788.421M506.78 169.579H450.561M506.78 169.579V225.837M506.78 169.579H563M563 113.32V169.579M563 113.32H619.22M450.561 169.579V225.837M450.561 169.579H394.341M394.341 113.32H338.121M394.341 113.32V169.579M506.78 844.68H450.561M506.78 844.68V900.938M506.78 844.68H563M563 788.421V844.68M563 788.421H619.22M450.561 844.68V900.938M450.561 844.68H394.341M394.341 788.421H338.121M394.341 788.421V844.68M506.78 225.837H450.561M506.78 225.837V282.096M506.78 225.837H563M563 169.579V225.837M563 169.579H619.22M450.561 225.837V282.096M450.561 225.837H394.341M394.341 169.579H338.121M394.341 169.579V225.837M506.78 900.938H450.561M506.78 900.938V957.196M506.78 900.938H563M563 844.68V900.938M563 844.68H619.22M450.561 900.938V957.196M450.561 900.938H394.341M394.341 844.68H338.121M394.341 844.68V900.938M506.78 282.096H450.561M506.78 282.096V338.354M506.78 282.096H563M563 225.837V282.096M563 225.837H619.22M450.561 282.096V338.354M450.561 282.096H394.341M394.341 225.837H338.121M394.341 225.837V282.096M506.78 957.196H450.561M506.78 957.196H563M563 900.938V957.196M563 900.938H619.22M450.561 957.196H394.341M394.341 900.938H338.121M394.341 900.938V957.196M506.78 338.354H450.561M506.78 338.354V394.612M506.78 338.354H563M563 282.096V338.354M563 282.096H619.22M450.561 338.354V394.612M450.561 338.354H394.341M394.341 282.096H338.121M394.341 282.096V338.354M563 957.196H619.22M394.341 957.196H338.121M506.78 394.612H450.561M506.78 394.612H563M563 338.354V394.612M563 338.354H619.22M450.561 394.612H394.341M394.341 338.354H338.121M394.341 338.354V394.612M563 394.612V450.871M563 394.612H619.22M394.341 394.612H338.121M394.341 394.612V450.871M563 450.871H619.22M394.341 450.871H338.121M619.22 507.129V563.388M619.22 507.129V450.871M619.22 507.129H675.439M619.22 563.388V619.646M619.22 563.388H675.439M619.22 619.646V675.904M619.22 619.646H675.439M619.22 0.803696V57.0621M619.22 0.803696H675.439M619.22 675.904V732.163M619.22 675.904H675.439M619.22 57.0621V113.32M619.22 57.0621H675.439M619.22 732.163V788.421M619.22 732.163H675.439M619.22 113.32V169.579M619.22 113.32H675.439M619.22 788.421V844.68M619.22 788.421H675.439M619.22 169.579V225.837M619.22 169.579H675.439M619.22 844.68V900.938M619.22 844.68H675.439M619.22 225.837V282.096M619.22 225.837H675.439M619.22 900.938V957.196M619.22 900.938H675.439M619.22 282.096V338.354M619.22 282.096H675.439M619.22 957.196H675.439M619.22 338.354V394.612M619.22 338.354H675.439M619.22 394.612V450.871M619.22 394.612H675.439M619.22 450.871H675.439M675.439 507.129V563.388M675.439 507.129V450.871M675.439 507.129H731.659M675.439 563.388V619.646M675.439 563.388H731.659M675.439 619.646V675.904M675.439 619.646H731.659M675.439 0.803696V57.0621M675.439 0.803696H731.659M675.439 675.904V732.163M675.439 675.904H731.659M675.439 57.0621V113.32M675.439 57.0621H731.659M675.439 732.163V788.421M675.439 732.163H731.659M675.439 113.32V169.579M675.439 113.32H731.659M675.439 788.421V844.68M675.439 788.421H731.659M675.439 169.579V225.837M675.439 169.579H731.659M675.439 844.68V900.938M675.439 844.68H731.659M675.439 225.837V282.096M675.439 225.837H731.659M675.439 900.938V957.196M675.439 900.938H731.659M675.439 282.096V338.354M675.439 282.096H731.659M675.439 957.196H731.659M675.439 338.354V394.612M675.439 338.354H731.659M675.439 394.612V450.871M675.439 394.612H731.659M675.439 450.871H731.659M0.803162 507.129V563.388M0.803162 507.129V450.871M0.803162 507.129H57.0228M0.803162 563.388V619.646M0.803162 563.388H57.0228M0.803162 450.871V394.612M0.803162 450.871H57.0228M57.0228 507.129V563.388M57.0228 507.129V450.871M57.0228 507.129H113.243M0.803162 619.646V675.904M0.803162 619.646H57.0228M57.0228 563.388V619.646M57.0228 563.388H113.243M0.803162 675.904V732.163M0.803162 675.904H57.0228M57.0228 619.646V675.904M57.0228 619.646H113.243M0.803162 732.163V788.421M0.803162 732.163H57.0228M57.0228 675.904V732.163M57.0228 675.904H113.243M0.803162 57.0621V0.803696H57.0228M0.803162 57.0621V113.32M0.803162 57.0621H57.0228M57.0228 0.803696V57.0621M57.0228 0.803696H113.243M0.803162 113.32V169.579M0.803162 113.32H57.0228M57.0228 57.0621V113.32M57.0228 57.0621H113.243M0.803162 788.421V844.68M0.803162 788.421H57.0228M57.0228 732.163V788.421M57.0228 732.163H113.243M0.803162 169.579V225.837M0.803162 169.579H57.0228M57.0228 113.32V169.579M57.0228 113.32H113.243M0.803162 844.68V900.938M0.803162 844.68H57.0228M57.0228 788.421V844.68M57.0228 788.421H113.243M0.803162 225.837V282.096M0.803162 225.837H57.0228M57.0228 169.579V225.837M57.0228 169.579H113.243M0.803162 900.938V957.196H57.0228M0.803162 900.938H57.0228M57.0228 844.68V900.938M57.0228 844.68H113.243M0.803162 282.096V338.354M0.803162 282.096H57.0228M57.0228 225.837V282.096M57.0228 225.837H113.243M57.0228 957.196V900.938M57.0228 957.196H113.243M57.0228 900.938H113.243M0.803162 338.354V394.612M0.803162 338.354H57.0228M57.0228 282.096V338.354M57.0228 282.096H113.243M0.803162 394.612H57.0228M57.0228 338.354V394.612M57.0228 338.354H113.243M57.0228 394.612V450.871M57.0228 394.612H113.243M57.0228 450.871H113.243M731.659 507.129V563.388M731.659 507.129V450.871M731.659 507.129H787.879M731.659 563.388V619.646M731.659 563.388H787.879M731.659 619.646V675.904M731.659 619.646H787.879M731.659 0.803696V57.0621M731.659 0.803696H787.879M731.659 675.904V732.163M731.659 675.904H787.879M731.659 57.0621V113.32M731.659 57.0621H787.879M731.659 732.163V788.421M731.659 732.163H787.879M731.659 113.32V169.579M731.659 113.32H787.879M731.659 788.421V844.68M731.659 788.421H787.879M731.659 169.579V225.837M731.659 169.579H787.879M731.659 844.68V900.938M731.659 844.68H787.879M731.659 225.837V282.096M731.659 225.837H787.879M731.659 900.938V957.196M731.659 900.938H787.879M731.659 282.096V338.354M731.659 282.096H787.879M731.659 957.196H787.879M731.659 338.354V394.612M731.659 338.354H787.879M731.659 394.612V450.871M731.659 394.612H787.879M731.659 450.871H787.879M113.243 507.129V563.388M113.243 507.129V450.871M113.243 507.129H169.462M113.243 563.388V619.646M113.243 563.388H169.462M113.243 619.646V675.904M113.243 619.646H169.462M113.243 0.803696V57.0621M113.243 0.803696H169.462M113.243 675.904V732.163M113.243 675.904H169.462M113.243 57.0621V113.32M113.243 57.0621H169.462M113.243 732.163V788.421M113.243 732.163H169.462M113.243 113.32V169.579M113.243 113.32H169.462M113.243 788.421V844.68M113.243 788.421H169.462M113.243 169.579V225.837M113.243 169.579H169.462M113.243 844.68V900.938M113.243 844.68H169.462M113.243 225.837V282.096M113.243 225.837H169.462M113.243 900.938V957.196M113.243 900.938H169.462M113.243 282.096V338.354M113.243 282.096H169.462M113.243 957.196H169.462M113.243 338.354V394.612M113.243 338.354H169.462M113.243 394.612V450.871M113.243 394.612H169.462M113.243 450.871H169.462M787.879 507.129V563.388M787.879 507.129V450.871M787.879 507.129H844.098M787.879 563.388V619.646M787.879 563.388H844.098M787.879 619.646V675.904M787.879 619.646H844.098M787.879 0.803696V57.0621M787.879 0.803696H844.098M787.879 675.904V732.163M787.879 675.904H844.098M787.879 57.0621V113.32M787.879 57.0621H844.098M787.879 732.163V788.421M787.879 732.163H844.098M787.879 113.32V169.579M787.879 113.32H844.098M787.879 788.421V844.68M787.879 788.421H844.098M787.879 169.579V225.837M787.879 169.579H844.098M787.879 844.68V900.938M787.879 844.68H844.098M787.879 225.837V282.096M787.879 225.837H844.098M787.879 900.938V957.196M787.879 900.938H844.098M787.879 282.096V338.354M787.879 282.096H844.098M787.879 957.196H844.098M787.879 338.354V394.612M787.879 338.354H844.098M787.879 394.612V450.871M787.879 394.612H844.098M787.879 450.871H844.098M169.462 507.129V563.388M169.462 507.129V450.871M169.462 507.129H225.682M169.462 563.388V619.646M169.462 563.388H225.682M169.462 619.646V675.904M169.462 619.646H225.682M169.462 0.803696V57.0621M169.462 0.803696H225.682M169.462 675.904V732.163M169.462 675.904H225.682M169.462 57.0621V113.32M169.462 57.0621H225.682M169.462 732.163V788.421M169.462 732.163H225.682M169.462 113.32V169.579M169.462 113.32H225.682M169.462 788.421V844.68M169.462 788.421H225.682M169.462 169.579V225.837M169.462 169.579H225.682M169.462 844.68V900.938M169.462 844.68H225.682M169.462 225.837V282.096M169.462 225.837H225.682M169.462 900.938V957.196M169.462 900.938H225.682M169.462 282.096V338.354M169.462 282.096H225.682M169.462 957.196H225.682M169.462 338.354V394.612M169.462 338.354H225.682M169.462 394.612V450.871M169.462 394.612H225.682M169.462 450.871H225.682M844.098 507.129V563.388M844.098 507.129V450.871M844.098 507.129H900.318M844.098 563.388V619.646M844.098 563.388H900.318M844.098 619.646V675.904M844.098 619.646H900.318M844.098 0.803696V57.0621M844.098 0.803696H900.318M844.098 675.904V732.163M844.098 675.904H900.318M844.098 57.0621V113.32M844.098 57.0621H900.318M844.098 732.163V788.421M844.098 732.163H900.318M844.098 113.32V169.579M844.098 113.32H900.318M844.098 788.421V844.68M844.098 788.421H900.318M844.098 169.579V225.837M844.098 169.579H900.318M844.098 844.68V900.938M844.098 844.68H900.318M844.098 225.837V282.096M844.098 225.837H900.318M844.098 900.938V957.196M844.098 900.938H900.318M844.098 282.096V338.354M844.098 282.096H900.318M844.098 957.196H900.318M844.098 338.354V394.612M844.098 338.354H900.318M844.098 394.612V450.871M844.098 394.612H900.318M844.098 450.871H900.318M225.682 507.129V563.388M225.682 507.129V450.871M225.682 507.129H281.902M225.682 563.388V619.646M225.682 563.388H281.902M225.682 619.646V675.904M225.682 619.646H281.902M225.682 0.803696V57.0621M225.682 0.803696H281.902M225.682 675.904V732.163M225.682 675.904H281.902M225.682 57.0621V113.32M225.682 57.0621H281.902M225.682 732.163V788.421M225.682 732.163H281.902M225.682 113.32V169.579M225.682 113.32H281.902M225.682 788.421V844.68M225.682 788.421H281.902M225.682 169.579V225.837M225.682 169.579H281.902M225.682 844.68V900.938M225.682 844.68H281.902M225.682 225.837V282.096M225.682 225.837H281.902M225.682 900.938V957.196M225.682 900.938H281.902M225.682 282.096V338.354M225.682 282.096H281.902M225.682 957.196H281.902M225.682 338.354V394.612M225.682 338.354H281.902M225.682 394.612V450.871M225.682 394.612H281.902M225.682 450.871H281.902M900.318 507.129V563.388M900.318 507.129V450.871M900.318 507.129H956.538M900.318 563.388V619.646M900.318 563.388H956.538M900.318 619.646V675.904M900.318 619.646H956.538M900.318 0.803696V57.0621M900.318 0.803696H956.538M900.318 675.904V732.163M900.318 675.904H956.538M900.318 57.0621V113.32M900.318 57.0621H956.538M900.318 732.163V788.421M900.318 732.163H956.538M900.318 113.32V169.579M900.318 113.32H956.538M900.318 788.421V844.68M900.318 788.421H956.538M900.318 169.579V225.837M900.318 169.579H956.538M900.318 844.68V900.938M900.318 844.68H956.538M900.318 225.837V282.096M900.318 225.837H956.538M900.318 900.938V957.196M900.318 900.938H956.538M900.318 282.096V338.354M900.318 282.096H956.538M900.318 957.196H956.538M900.318 338.354V394.612M900.318 338.354H956.538M900.318 394.612V450.871M900.318 394.612H956.538M900.318 450.871H956.538M281.902 507.129V563.388M281.902 507.129V450.871M281.902 507.129H338.121M281.902 563.388V619.646M281.902 563.388H338.121M281.902 619.646V675.904M281.902 619.646H338.121M281.902 0.803696V57.0621M281.902 0.803696H338.121M281.902 675.904V732.163M281.902 675.904H338.121M281.902 57.0621V113.32M281.902 57.0621H338.121M281.902 732.163V788.421M281.902 732.163H338.121M281.902 113.32V169.579M281.902 113.32H338.121M281.902 788.421V844.68M281.902 788.421H338.121M281.902 169.579V225.837M281.902 169.579H338.121M281.902 844.68V900.938M281.902 844.68H338.121M281.902 225.837V282.096M281.902 225.837H338.121M281.902 900.938V957.196M281.902 900.938H338.121M281.902 282.096V338.354M281.902 282.096H338.121M281.902 957.196H338.121M281.902 338.354V394.612M281.902 338.354H338.121M281.902 394.612V450.871M281.902 394.612H338.121M281.902 450.871H338.121M956.538 507.129V563.388M956.538 507.129V450.871M956.538 507.129H1012.76M956.538 563.388V619.646M956.538 563.388H1012.76M956.538 619.646V675.904M956.538 619.646H1012.76M956.538 0.803696V57.0621M956.538 0.803696H1012.76M956.538 675.904V732.163M956.538 675.904H1012.76M956.538 57.0621V113.32M956.538 57.0621H1012.76M956.538 732.163V788.421M956.538 732.163H1012.76M956.538 113.32V169.579M956.538 113.32H1012.76M956.538 788.421V844.68M956.538 788.421H1012.76M956.538 169.579V225.837M956.538 169.579H1012.76M956.538 844.68V900.938M956.538 844.68H1012.76M956.538 225.837V282.096M956.538 225.837H1012.76M956.538 900.938V957.196M956.538 900.938H1012.76M956.538 282.096V338.354M956.538 282.096H1012.76M956.538 957.196H1012.76M956.538 338.354V394.612M956.538 338.354H1012.76M956.538 394.612V450.871M956.538 394.612H1012.76M956.538 450.871H1012.76M338.121 507.129V563.388M338.121 507.129V450.871M338.121 563.388V619.646M338.121 619.646V675.904M338.121 0.803696V57.0621M338.121 675.904V732.163M338.121 57.0621V113.32M338.121 732.163V788.421M338.121 113.32V169.579M338.121 788.421V844.68M338.121 169.579V225.837M338.121 844.68V900.938M338.121 225.837V282.096M338.121 900.938V957.196M338.121 282.096V338.354M338.121 338.354V394.612M338.121 394.612V450.871M1012.76 507.129V563.388M1012.76 507.129V450.871M1012.76 507.129H1068.98M1012.76 563.388V619.646M1012.76 563.388H1068.98M1012.76 619.646V675.904M1012.76 619.646H1068.98M1012.76 0.803696V57.0621M1012.76 0.803696H1068.98M1012.76 675.904V732.163M1012.76 675.904H1068.98M1012.76 57.0621V113.32M1012.76 57.0621H1068.98M1012.76 732.163V788.421M1012.76 732.163H1068.98M1012.76 113.32V169.579M1012.76 113.32H1068.98M1012.76 788.421V844.68M1012.76 788.421H1068.98M1012.76 169.579V225.837M1012.76 169.579H1068.98M1012.76 844.68V900.938M1012.76 844.68H1068.98M1012.76 225.837V282.096M1012.76 225.837H1068.98M1012.76 900.938V957.196M1012.76 900.938H1068.98M1012.76 282.096V338.354M1012.76 282.096H1068.98M1012.76 957.196H1068.98M1012.76 338.354V394.612M1012.76 338.354H1068.98M1012.76 394.612V450.871M1012.76 394.612H1068.98M1012.76 450.871H1068.98M1068.98 507.129V563.388M1068.98 507.129V450.871M1068.98 507.129H1125.2M1068.98 563.388V619.646M1068.98 563.388H1125.2M1068.98 619.646V675.904M1068.98 619.646H1125.2M1068.98 0.803696V57.0621M1068.98 0.803696H1125.2V57.0621M1068.98 675.904V732.163M1068.98 675.904H1125.2M1068.98 57.0621V113.32M1068.98 57.0621H1125.2M1068.98 732.163V788.421M1068.98 732.163H1125.2M1068.98 113.32V169.579M1068.98 113.32H1125.2M1068.98 788.421V844.68M1068.98 788.421H1125.2M1068.98 169.579V225.837M1068.98 169.579H1125.2M1068.98 844.68V900.938M1068.98 844.68H1125.2M1068.98 225.837V282.096M1068.98 225.837H1125.2M1068.98 900.938V957.196M1068.98 900.938H1125.2M1068.98 282.096V338.354M1068.98 282.096H1125.2M1068.98 957.196H1125.2V900.938M1068.98 338.354V394.612M1068.98 338.354H1125.2M1068.98 394.612V450.871M1068.98 394.612H1125.2M1068.98 450.871H1125.2M1125.2 507.129V563.388M1125.2 507.129V450.871M1125.2 563.388V619.646M1125.2 619.646V675.904M1125.2 57.0621V113.32M1125.2 675.904V732.163M1125.2 732.163V788.421M1125.2 113.32V169.579M1125.2 788.421V844.68M1125.2 169.579V225.837M1125.2 844.68V900.938M1125.2 225.837V282.096M1125.2 282.096V338.354M1125.2 338.354V394.612M1125.2 394.612V450.871" stroke="url(#paint0_radial_1_4)"></path>
        <defs>
          <radialGradient id="paint0_radial_1_4" cx="0" cy="0" r="1" gradientUnits="userSpaceOnUse" gradientTransform="translate(551.756 472.571) rotate(157.098) scale(621.639 459.097)">
            <stop></stop>
            <stop offset="1" stop-opacity="0"></stop>
          </radialGradient>
        </defs>
      </svg>